<?xml version="1.0" standalone="no"?>
<!DOCTYPE svg PUBLIC "-//W3C//DTD SVG 20010904//EN"
 "http://www.w3.org/TR/2001/REC-SVG-20010904/DTD/svg10.dtd">
<svg version="1.0" xmlns="http://www.w3.org/2000/svg"
 width="1536.000000pt" height="1024.000000pt" viewBox="0 0 1536.000000 1024.000000"
 preserveAspectRatio="xMidYMid meet">
<metadata>
Created by potrace 1.16, written by Peter Selinger 2001-2019
</metadata>
<g transform="translate(0.000000,1024.000000) scale(0.100000,-0.100000)"
fill="#000000" stroke="none">
<path d="M0 5120 l0 -5120 7680 0 7680 0 0 5120 0 5120 -7680 0 -7680 0 0
-5120z m7323 1213 c-13 -2 -35 -2 -50 0 -16 2 -5 4 22 4 28 0 40 -2 28 -4z
m-3825 -22 c11 -6 15 -61 19 -237 4 -151 10 -232 17 -236 6 -4 77 -8 157 -8
171 0 158 10 166 -126 5 -71 3 -93 -8 -100 -8 -5 -84 -11 -169 -14 l-155 -5
-3 -427 -2 -428 38 -38 c45 -45 73 -52 205 -52 48 0 87 -1 88 -2 0 -2 2 -56 5
-120 l5 -118 -169 0 c-143 0 -179 3 -233 20 -81 26 -100 39 -149 101 -73 92
-73 98 -80 609 l-5 455 -137 3 -138 3 0 119 0 119 138 3 137 3 5 235 5 235 55
3 c30 1 62 4 70 6 31 7 126 5 138 -3z m3932 -528 c3 -292 8 -534 11 -537 3 -3
50 39 105 94 54 55 107 100 117 100 9 0 17 7 17 15 0 20 119 145 139 145 9 0
22 13 29 28 6 16 51 67 99 115 l87 87 168 0 c158 0 168 -1 159 -17 -5 -10
-147 -157 -315 -326 -168 -170 -306 -315 -306 -322 0 -14 119 -143 234 -254
32 -31 66 -68 75 -82 9 -14 47 -53 84 -85 38 -32 91 -90 119 -127 28 -37 63
-74 77 -82 35 -18 111 -100 111 -120 0 -13 -23 -15 -157 -15 l-158 1 -85 82
c-100 97 -132 136 -123 150 3 5 2 7 -4 4 -16 -10 -167 138 -158 153 5 8 4 11
-2 7 -6 -4 -77 59 -158 139 -109 107 -150 142 -156 132 -5 -7 -9 -160 -9 -340
l0 -328 -145 0 -145 0 0 953 c0 525 2 956 4 958 3 2 67 4 143 4 l138 0 5 -532z
m2961 515 c54 -30 84 -101 69 -161 -26 -99 -155 -151 -223 -89 -13 12 -15 17
-5 24 9 5 6 8 -9 8 -31 0 -63 46 -63 89 0 52 29 101 75 127 51 29 107 30 156
2z m1737 14 l62 -2 0 -955 0 -955 -140 0 -140 0 0 958 0 957 78 -1 c42 0 105
-2 140 -2z m-8908 -452 c0 -5 -7 -10 -16 -10 -8 0 -12 5 -9 10 3 6 10 10 16
10 5 0 9 -4 9 -10z m335 0 c3 -5 1 -10 -4 -10 -6 0 -11 5 -11 10 0 6 2 10 4
10 3 0 8 -4 11 -10z m-1140 -37 c86 -28 139 -56 200 -105 52 -42 69 -67 124
-189 18 -39 28 -88 19 -89 -2 0 -52 -9 -113 -20 -60 -11 -113 -20 -116 -20 -4
0 -12 21 -20 47 -9 32 -28 63 -63 99 -65 67 -130 89 -261 88 -183 -1 -283 -62
-301 -181 -8 -57 1 -87 36 -124 48 -51 129 -77 339 -110 206 -32 400 -110 433
-176 8 -15 30 -52 49 -82 33 -53 34 -57 34 -160 -1 -114 -9 -140 -76 -237 -32
-47 -130 -118 -193 -140 -152 -54 -362 -64 -521 -25 -147 36 -271 121 -328
225 -34 62 -63 143 -54 152 4 4 204 44 217 44 3 0 -2 -5 -10 -10 -12 -8 -10
-10 11 -10 21 0 30 -9 49 -51 50 -105 171 -163 340 -162 192 1 310 86 310 225
0 54 -24 92 -76 120 -46 25 -215 66 -339 83 -153 20 -319 89 -386 159 -104
108 -126 295 -52 441 40 77 179 177 293 209 82 23 103 24 255 21 104 -2 155
-8 200 -22z m2463 3 c90 -25 125 -42 233 -118 91 -64 131 -98 114 -98 -7 0 24
-39 83 -105 33 -37 63 -105 93 -210 19 -70 21 -94 16 -210 -6 -132 -30 -239
-60 -274 -8 -9 -18 -27 -22 -41 -11 -37 -96 -149 -157 -206 -143 -135 -378
-208 -592 -184 -215 25 -401 128 -515 285 -72 99 -86 125 -123 239 -27 80 -30
105 -31 211 0 108 3 129 31 216 55 166 192 339 334 423 55 32 170 76 228 86
73 14 297 5 368 -14z m1677 -10 c38 -14 74 -31 80 -38 5 -7 28 -19 50 -27 59
-21 129 -67 156 -103 13 -18 32 -40 42 -50 9 -10 17 -20 17 -22 0 -2 16 -21
35 -42 19 -21 35 -43 35 -50 0 -6 -47 -35 -105 -64 l-105 -53 -55 61 c-58 64
-175 142 -242 162 -23 7 -85 10 -154 8 -110 -3 -119 -5 -192 -41 -112 -55
-187 -129 -240 -235 l-42 -86 0 -126 c0 -78 4 -132 11 -141 6 -8 14 -25 17
-39 9 -35 78 -139 118 -176 194 -178 514 -172 690 13 30 32 60 67 67 78 9 17
14 18 29 8 10 -7 57 -33 105 -58 47 -24 89 -48 92 -53 10 -16 -50 -96 -125
-167 -161 -151 -381 -222 -604 -195 -112 13 -166 30 -280 89 -73 37 -107 63
-179 136 -87 89 -94 100 -167 261 -30 67 -39 122 -39 244 0 146 17 216 82 344
43 85 66 115 138 186 101 99 190 151 319 187 77 21 102 23 231 19 124 -3 155
-8 215 -30z m3355 -691 l0 -725 -125 0 -125 0 -1 118 c0 64 -2 335 -3 602 l-2
485 -315 3 c-262 2 -324 0 -374 -13 -222 -59 -386 -299 -359 -524 3 -31 20
-92 37 -136 27 -69 41 -90 105 -152 40 -40 88 -79 105 -88 54 -27 177 -55 241
-55 95 0 214 50 281 119 21 23 43 41 48 41 4 0 19 12 32 26 l24 25 5 -43 c4
-24 5 -96 4 -160 -3 -126 -3 -126 -68 -160 -14 -7 -41 -23 -60 -35 -116 -74
-423 -71 -580 6 -119 59 -268 180 -270 218 0 7 -6 16 -12 20 -7 4 -22 22 -34
38 -77 110 -122 285 -110 429 12 146 33 208 124 371 41 74 216 221 315 265
106 47 125 49 635 49 l482 1 0 -725z m540 0 l0 -725 -140 0 -140 0 0 725 0
725 140 0 140 0 0 -725z m956 698 c31 -9 66 -26 78 -38 12 -11 31 -22 42 -23
19 -4 76 -42 105 -71 33 -35 99 -171 101 -212 l3 -43 -105 -18 c-127 -21 -130
-21 -130 -5 0 75 -79 169 -169 201 -72 26 -223 27 -306 2 -95 -28 -165 -106
-165 -183 0 -60 37 -113 99 -144 54 -27 74 -32 292 -69 64 -11 140 -29 170
-39 176 -63 221 -88 240 -133 6 -14 22 -37 36 -50 39 -36 54 -73 60 -148 7
-81 -10 -174 -43 -241 -27 -55 -104 -126 -174 -163 -171 -89 -508 -94 -686
-10 -30 14 -54 30 -54 35 0 5 -5 9 -12 9 -24 0 -114 79 -133 116 -11 21 -25
46 -32 54 -12 16 -43 122 -38 128 7 8 179 30 192 25 7 -3 13 0 13 6 0 6 8 11
18 11 13 0 14 -2 4 -9 -11 -6 -9 -9 6 -13 12 -4 23 -18 27 -37 9 -43 74 -107
139 -137 30 -14 92 -30 139 -36 74 -10 97 -9 170 6 101 21 137 41 173 95 68
103 44 201 -61 254 -34 16 -126 38 -284 67 -58 11 -131 25 -161 31 -83 16
-215 86 -262 139 -109 121 -125 278 -46 435 50 98 185 187 333 219 94 21 341
15 421 -11z m1879 4 c61 -17 115 -44 115 -57 0 -6 9 -10 20 -10 25 0 99 -45
107 -65 3 -8 11 -15 18 -15 7 0 34 -23 60 -52 87 -96 136 -189 170 -321 24
-96 29 -139 26 -244 l-1 -63 -586 0 -586 0 7 -37 c8 -47 62 -144 110 -200 25
-30 65 -57 130 -89 84 -42 101 -47 182 -51 106 -7 170 6 267 50 65 31 125 80
170 142 11 16 14 16 42 -1 69 -43 164 -117 164 -126 0 -6 -12 -27 -27 -47 -79
-106 -213 -194 -361 -237 -115 -33 -281 -38 -392 -10 -263 67 -464 263 -546
533 -22 73 -25 273 -5 353 20 81 81 206 135 277 110 145 254 240 421 279 73
17 286 12 360 -9z m-3645 -248 c0 -6 -4 -7 -10 -4 -5 3 -10 11 -10 16 0 6 5 7
10 4 6 -3 10 -11 10 -16z m-6420 -25 c0 -14 -3 -14 -15 -4 -8 7 -15 14 -15 16
0 2 7 4 15 4 8 0 15 -7 15 -16z m330 12 c0 -3 -4 -8 -10 -11 -5 -3 -10 -1 -10
4 0 6 5 11 10 11 6 0 10 -2 10 -4z m-331 -78 c-1 -42 -1 -42 -10 -13 -5 17 -7
36 -4 43 9 24 15 11 14 -30z m4251 -197 c0 -6 -4 -13 -10 -16 -5 -3 -10 1 -10
9 0 9 5 16 10 16 6 0 10 -4 10 -9z m297 -133 c-3 -8 -6 -5 -6 6 -1 11 2 17 5
13 3 -3 4 -12 1 -19z m-305 -123 c0 -5 -5 -11 -11 -13 -6 -2 -11 4 -11 13 0 9
5 15 11 13 6 -2 11 -8 11 -13z m5208 -54 c0 -6 -4 -13 -10 -16 -5 -3 -10 1
-10 9 0 9 5 16 10 16 6 0 10 -4 10 -9z"/>
<path d="M4545 5587 c-172 -63 -278 -158 -338 -301 -17 -42 -21 -72 -22 -171
0 -105 3 -127 25 -180 13 -33 35 -76 49 -95 26 -38 130 -140 143 -140 4 0 29
-13 56 -29 68 -40 194 -58 294 -41 182 31 339 171 388 345 18 63 21 98 18 170
-3 85 -7 99 -52 191 -48 100 -92 148 -175 193 -14 8 -42 26 -61 41 -34 26 -39
27 -165 28 -72 0 -143 -4 -160 -11z"/>
<path d="M12955 5586 c-61 -17 -146 -70 -207 -128 -86 -84 -146 -225 -102
-242 9 -3 208 -6 444 -6 345 0 430 3 439 13 16 20 -24 131 -71 195 -50 67
-168 155 -230 170 -58 15 -219 13 -273 -2z m-290 -346 c3 -5 -1 -10 -9 -10 -9
0 -16 5 -16 10 0 6 4 10 9 10 6 0 13 -4 16 -10z m855 0 c0 -5 -7 -10 -16 -10
-8 0 -12 5 -9 10 3 6 10 10 16 10 5 0 9 -4 9 -10z"/>
</g>
</svg>
